<?xml version="1.0" encoding="utf-8"?>
<!-- Generator: Adobe Illustrator 28.3.0, SVG Export Plug-In . SVG Version: 6.00 Build 0)  -->
<svg version="1.1" id="_レイヤー_2" xmlns="http://www.w3.org/2000/svg" xmlns:xlink="http://www.w3.org/1999/xlink" x="0px"
	 y="0px" viewBox="0 0 677.8 643.3" style="enable-background:new 0 0 677.8 643.3;" xml:space="preserve">
<style type="text/css">
	.st0{fill:none;stroke:#FFFFFF;stroke-width:12.247;stroke-linejoin:round;}
	.st1{fill:#FFFFFF;}
</style>
<g id="_編集モード">
	<path class="st0" d="M621.5,267.8C595,365,429.4,417.3,339.9,493.9C250.4,417.3,79.7,369.3,58.3,267.8c-18.3-86.8,55-143,135.6-143
		s146,23.4,146,104c0-80.6,65.4-104,146-104S643,179,621.5,267.8L621.5,267.8z"/>
	<path class="st1" d="M15.7,316.9H5.8c-3.2,0-5.8-2.6-5.8-5.8s2.6-5.8,5.8-5.8h9.9c3.2,0,5.8,2.6,5.8,5.8S18.8,316.9,15.7,316.9z"/>
	<path class="st1" d="M642.6,316.9H623c-3.2,0-5.8-2.6-5.8-5.8s2.6-5.8,5.8-5.8h19.6c3.2,0,5.8,2.6,5.8,5.8S645.7,316.9,642.6,316.9
		z M603.4,316.9h-19.6c-3.2,0-5.8-2.6-5.8-5.8s2.6-5.8,5.8-5.8h19.6c3.2,0,5.8,2.6,5.8,5.8S606.6,316.9,603.4,316.9z M564.2,316.9
		h-19.6c-3.2,0-5.8-2.6-5.8-5.8s2.6-5.8,5.8-5.8h19.6c3.2,0,5.8,2.6,5.8,5.8S567.4,316.9,564.2,316.9z M525,316.9h-19.6
		c-3.2,0-5.8-2.6-5.8-5.8s2.6-5.8,5.8-5.8H525c3.2,0,5.8,2.6,5.8,5.8S528.2,316.9,525,316.9z M485.8,316.9h-19.6
		c-3.2,0-5.8-2.6-5.8-5.8s2.6-5.8,5.8-5.8h19.6c3.2,0,5.8,2.6,5.8,5.8S489,316.9,485.8,316.9z M446.6,316.9H427
		c-3.2,0-5.8-2.6-5.8-5.8s2.6-5.8,5.8-5.8h19.6c3.2,0,5.8,2.6,5.8,5.8S449.8,316.9,446.6,316.9z M407.5,316.9h-19.6
		c-3.2,0-5.8-2.6-5.8-5.8s2.6-5.8,5.8-5.8h19.6c3.2,0,5.8,2.6,5.8,5.8S410.7,316.9,407.5,316.9z M368.3,316.9h-19.6
		c-3.2,0-5.8-2.6-5.8-5.8s2.6-5.8,5.8-5.8h19.6c3.2,0,5.8,2.6,5.8,5.8S371.5,316.9,368.3,316.9z M329.1,316.9h-19.6
		c-3.2,0-5.8-2.6-5.8-5.8s2.6-5.8,5.8-5.8h19.6c3.2,0,5.8,2.6,5.8,5.8S332.3,316.9,329.1,316.9z M289.9,316.9h-19.6
		c-3.2,0-5.8-2.6-5.8-5.8s2.6-5.8,5.8-5.8h19.6c3.2,0,5.8,2.6,5.8,5.8S293.1,316.9,289.9,316.9z M250.7,316.9h-19.6
		c-3.2,0-5.8-2.6-5.8-5.8s2.6-5.8,5.8-5.8h19.6c3.2,0,5.8,2.6,5.8,5.8S253.9,316.9,250.7,316.9z M211.6,316.9H192
		c-3.2,0-5.8-2.6-5.8-5.8s2.6-5.8,5.8-5.8h19.6c3.2,0,5.8,2.6,5.8,5.8S214.7,316.9,211.6,316.9z M172.4,316.9h-19.6
		c-3.2,0-5.8-2.6-5.8-5.8s2.6-5.8,5.8-5.8h19.6c3.2,0,5.8,2.6,5.8,5.8S175.6,316.9,172.4,316.9z M133.2,316.9h-19.6
		c-3.2,0-5.8-2.6-5.8-5.8s2.6-5.8,5.8-5.8h19.6c3.2,0,5.8,2.6,5.8,5.8S136.4,316.9,133.2,316.9z M94,316.9H74.4
		c-3.2,0-5.8-2.6-5.8-5.8s2.6-5.8,5.8-5.8H94c3.2,0,5.8,2.6,5.8,5.8S97.2,316.9,94,316.9z M54.8,316.9H35.2c-3.2,0-5.8-2.6-5.8-5.8
		s2.6-5.8,5.8-5.8h19.6c3.2,0,5.8,2.6,5.8,5.8S58,316.9,54.8,316.9z"/>
	<path class="st1" d="M672,316.9h-9.9c-3.2,0-5.8-2.6-5.8-5.8s2.6-5.8,5.8-5.8h9.9c3.2,0,5.8,2.6,5.8,5.8S675.2,316.9,672,316.9z"/>
	<path class="st1" d="M338.9,21.4c-3.2,0-5.8-2.6-5.8-5.8V5.8c0-3.2,2.6-5.8,5.8-5.8s5.8,2.6,5.8,5.8v9.9
		C344.7,18.8,342.1,21.4,338.9,21.4z"/>
	<path class="st1" d="M338.9,613.7c-3.2,0-5.8-2.6-5.8-5.8v-19.7c0-3.2,2.6-5.8,5.8-5.8s5.8,2.6,5.8,5.8v19.7
		C344.7,611.1,342.1,613.7,338.9,613.7z M338.9,574.2c-3.2,0-5.8-2.6-5.8-5.8v-19.7c0-3.2,2.6-5.8,5.8-5.8s5.8,2.6,5.8,5.8v19.7
		C344.7,571.6,342.1,574.2,338.9,574.2z M338.9,534.7c-3.2,0-5.8-2.6-5.8-5.8v-19.7c0-3.2,2.6-5.8,5.8-5.8s5.8,2.6,5.8,5.8v19.7
		C344.7,532.1,342.1,534.7,338.9,534.7z M338.9,495.2c-3.2,0-5.8-2.6-5.8-5.8v-19.7c0-3.2,2.6-5.8,5.8-5.8s5.8,2.6,5.8,5.8v19.7
		C344.7,492.6,342.1,495.2,338.9,495.2z M338.9,455.7c-3.2,0-5.8-2.6-5.8-5.8v-19.7c0-3.2,2.6-5.8,5.8-5.8s5.8,2.6,5.8,5.8V450
		C344.7,453.2,342.1,455.7,338.9,455.7z M338.9,416.3c-3.2,0-5.8-2.6-5.8-5.8v-19.7c0-3.2,2.6-5.8,5.8-5.8s5.8,2.6,5.8,5.8v19.7
		C344.7,413.7,342.1,416.3,338.9,416.3z M338.9,376.8c-3.2,0-5.8-2.6-5.8-5.8v-19.7c0-3.2,2.6-5.8,5.8-5.8s5.8,2.6,5.8,5.8V371
		C344.7,374.2,342.1,376.8,338.9,376.8z M338.9,337.3c-3.2,0-5.8-2.6-5.8-5.8v-19.7c0-3.2,2.6-5.8,5.8-5.8s5.8,2.6,5.8,5.8v19.7
		C344.7,334.7,342.1,337.3,338.9,337.3z M338.9,297.8c-3.2,0-5.8-2.6-5.8-5.8v-19.7c0-3.2,2.6-5.8,5.8-5.8s5.8,2.6,5.8,5.8V292
		C344.7,295.2,342.1,297.8,338.9,297.8z M338.9,258.3c-3.2,0-5.8-2.6-5.8-5.8v-19.7c0-3.2,2.6-5.8,5.8-5.8s5.8,2.6,5.8,5.8v19.7
		C344.7,255.7,342.1,258.3,338.9,258.3z M338.9,218.8c-3.2,0-5.8-2.6-5.8-5.8v-19.7c0-3.2,2.6-5.8,5.8-5.8s5.8,2.6,5.8,5.8V213
		C344.7,216.3,342.1,218.8,338.9,218.8z M338.9,179.4c-3.2,0-5.8-2.6-5.8-5.8v-19.7c0-3.2,2.6-5.8,5.8-5.8s5.8,2.6,5.8,5.8v19.7
		C344.7,176.8,342.1,179.4,338.9,179.4z M338.9,139.9c-3.2,0-5.8-2.6-5.8-5.8v-19.7c0-3.2,2.6-5.8,5.8-5.8s5.8,2.6,5.8,5.8v19.7
		C344.7,137.3,342.1,139.9,338.9,139.9z M338.9,100.4c-3.2,0-5.8-2.6-5.8-5.8V74.9c0-3.2,2.6-5.8,5.8-5.8s5.8,2.6,5.8,5.8v19.7
		C344.7,97.8,342.1,100.4,338.9,100.4z M338.9,60.9c-3.2,0-5.8-2.6-5.8-5.8V35.4c0-3.2,2.6-5.8,5.8-5.8s5.8,2.6,5.8,5.8v19.7
		C344.7,58.3,342.1,60.9,338.9,60.9z"/>
	<path class="st1" d="M338.9,643.3c-3.2,0-5.8-2.6-5.8-5.8v-9.9c0-3.2,2.6-5.8,5.8-5.8s5.8,2.6,5.8,5.8v9.9
		C344.7,640.7,342.1,643.3,338.9,643.3z"/>
</g>
</svg>
